# Blender 4.4.3
# www.blender.org
mtllib bottle.mtl
o Cube
v 0.577919 1.158508 -0.534281
v 0.577919 -0.976931 -0.534281
v 0.577919 1.158508 0.534281
v 0.577919 -0.976931 0.534281
v -0.490643 1.158508 -0.534281
v -0.490643 -0.976931 -0.534281
v -0.490643 1.158508 0.534281
v -0.490643 -0.976931 0.534281
v 0.305710 1.248782 -0.262072
v 0.305710 1.248782 0.262072
v -0.218434 1.248782 -0.262072
v -0.218434 1.248782 0.262072
v 0.305710 2.258212 -0.262072
v 0.305710 2.258212 0.262072
v -0.218434 2.258212 -0.262072
v -0.218434 2.258212 0.262072
vn -0.0000 0.9492 0.3148
vn -0.0000 -0.0000 1.0000
vn -1.0000 -0.0000 -0.0000
vn -0.0000 -1.0000 -0.0000
vn 1.0000 -0.0000 -0.0000
vn -0.0000 -0.0000 -1.0000
vn -0.3148 0.9492 -0.0000
vn 0.3148 0.9492 -0.0000
vn -0.0000 0.9492 -0.3148
vn -0.0000 1.0000 -0.0000
vt 0.125426 0.529698
vt 0.155866 0.529698
vt 0.148111 0.532270
vt 0.133180 0.532270
vt 0.155866 0.468867
vt 0.125426 0.468867
vt 0.125118 0.468990
vt 0.125118 0.531010
vt 0.156153 0.531010
vt 0.156153 0.468990
vt 0.133180 0.561025
vt 0.148111 0.561025
vt 0.133024 0.533632
vt 0.148247 0.533632
vt 0.148247 0.562949
vt 0.133024 0.562949
s 0
usemtl Material
f 7/1/1 3/2/1 10/3/1 12/4/1
f 4/5/2 3/2/2 7/1/2 8/6/2
f 8/7/3 7/8/3 5/9/3 6/10/3
f 6/6/4 2/5/4 4/5/4 8/6/4
f 2/10/5 1/9/5 3/8/5 4/7/5
f 6/6/6 5/1/6 1/2/6 2/5/6
f 9/3/6 11/4/6 15/11/6 13/12/6
f 5/9/7 7/8/7 12/13/7 11/14/7
f 3/8/8 1/9/8 9/14/8 10/13/8
f 1/2/9 5/1/9 11/4/9 9/3/9
f 13/12/10 15/11/10 16/11/10 14/12/10
f 10/13/5 9/14/5 13/15/5 14/16/5
f 11/14/3 12/13/3 16/16/3 15/15/3
f 12/4/2 10/3/2 14/12/2 16/11/2
