# Blender 4.5.0
# www.blender.org
mtllib door_1.mtl
o Cube.001
v -0.310646 0.007725 0.027046
v 0.282096 0.007725 0.027046
v -0.324970 1.204221 0.027046
v 0.284908 1.204000 0.027046
v -0.310646 0.007725 -0.013222
v 0.282096 0.007725 -0.013222
v -0.324970 1.204221 -0.013222
v 0.284908 1.204000 -0.013222
vn 0.3129 0.6996 -0.6424
vn -0.3139 0.6989 -0.6427
vn 0.3153 -0.6979 -0.6430
vn -0.3146 -0.6983 -0.6430
vn 0.3129 0.6996 0.6424
vn -0.3139 0.6989 0.6427
vn 0.3153 -0.6979 0.6430
vn -0.3146 -0.6983 0.6430
vt 0.497260 0.162966
vt 0.378828 0.162966
vt 0.375966 0.521562
vt 0.497822 0.521496
s 1
usemtl Material
f 2/1/2 1/2/1 3/3/3 4/4/4
f 6/1/6 8/4/8 7/3/7 5/2/5
f 2/1/2 4/4/4 8/4/8 6/1/6
f 1/2/1 2/1/2 6/1/6 5/2/5
f 3/3/3 1/2/1 5/2/5 7/3/7
f 4/4/4 3/3/3 7/3/7 8/4/8
