# Blender 4.4.3
# www.blender.org
mtllib fountain.mtl
o Cylinder
v 0.151178 2.100395 -6.076008
v 2.935806 2.100395 -5.268144
v 4.270745 -0.015037 -4.533854
v 5.136006 2.100395 -3.249949
v 6.076008 -0.015037 -0.151178
v 6.076008 2.100395 0.151178
v 4.533854 -0.015037 4.270745
v 4.270745 2.100395 4.533854
v 0.151178 -0.015037 6.076008
v -0.151178 2.100395 6.076008
v -2.935806 2.100395 5.268144
v -4.270745 -0.015037 4.533854
v -5.136006 2.100395 3.249949
v -6.076008 -0.015037 0.151178
v -6.076008 2.100395 -0.151178
v -5.136006 -0.015037 -3.249949
v -5.268144 2.100395 -2.935806
v -2.935806 -0.015037 -5.268144
v -3.249949 2.100395 -5.136006
v -0.151178 -0.015037 -6.076008
v -0.380230 2.100395 -5.423118
v 2.597717 2.100395 -4.661458
v 4.864799 2.100395 -2.426624
v 5.300728 2.100395 0.616111
v 4.103587 2.100395 3.565860
v 0.380230 2.100395 5.423118
v -3.565860 2.100395 4.103586
v -5.423118 2.100395 0.380230
v -4.103587 2.100395 -3.565860
v -0.685073 0.517342 -5.393094
v 2.432651 0.517342 -4.749688
v 4.720403 0.517342 -2.696772
v 5.244734 0.517342 1.430923
v 2.696773 0.517342 4.720402
v -1.430922 0.517342 5.244735
v -4.720402 0.517342 2.696773
v -5.319074 0.517342 -0.429848
v -4.297913 0.517342 -3.329073
v -0.467396 0.517342 -0.749502
v 0.782584 0.517342 -0.487294
v 0.244524 0.517342 0.911109
v -0.837000 0.517342 0.225959
v 0.416623 8.813523 -0.751516
v 0.857620 8.813439 0.272850
v -0.357187 8.804218 0.826953
v -0.754051 8.809475 -0.518757
v 0.704017 9.270463 -1.854475
v 2.090431 9.269699 0.138853
v 0.259371 9.270324 1.999122
v -1.984538 9.269737 0.671722
v -1.150702 9.270390 -1.615510
vn -0.6750 -0.0543 -0.7358
vn -0.0000 1.0000 -0.0000
vn 0.8669 -0.2480 -0.4324
vn -0.9148 -0.1587 -0.3713
vn -0.4324 -0.2480 -0.8669
vn 0.3072 -0.2480 -0.9188
vn -0.9349 -0.0225 -0.3542
vn 0.4144 0.0393 0.9092
vn 0.2053 -0.0221 -0.9785
vn -0.1950 0.0205 -0.9806
vn -0.5349 -0.0303 0.8444
vn 0.9325 -0.0413 0.3588
vn -0.0583 -0.9223 -0.3820
vn 0.3299 -0.9332 -0.1421
vn -0.2811 -0.9564 0.0792
vn 0.1437 -0.9432 0.2995
vn 0.9409 -0.0680 -0.3318
vn 0.6663 0.1683 -0.7264
vn 0.9347 0.0106 0.3554
vn 0.3554 -0.0106 0.9347
vn -0.3088 -0.0890 0.9470
vn -0.9409 -0.0680 0.3318
vn -0.6663 0.1683 0.7264
vn -0.9619 -0.0293 -0.2718
vn -0.7358 0.0543 -0.6750
vn -0.2718 0.0293 -0.9619
vn 0.3088 -0.0890 -0.9470
vn -0.0000 -1.0000 -0.0000
vn -0.9875 0.0853 0.1323
vn 0.5932 0.2480 -0.7659
vn 0.9428 -0.0853 0.3224
vn 0.9697 0.1587 -0.1857
vn -0.7659 0.2480 -0.5932
vn -0.2246 0.0154 0.9743
vn 0.4714 -0.0000 0.8819
vn -0.1221 0.2480 -0.9610
vn -0.6854 -0.0154 0.7280
vn 0.9181 0.0279 -0.3953
vn -0.9585 0.0350 0.2828
vn -0.0000 1.0000 0.0001
vn 0.3829 -0.8845 -0.2667
vn -0.2833 -0.8306 0.4793
vn 0.3583 -0.8644 0.3529
vn -0.4925 -0.8516 -0.1798
vt 1.938444 0.005753
vt 2.015767 1.015594
vt 1.468140 1.017495
vt -3.186894 -0.514498
vt -2.933925 -0.597296
vt -3.090952 -0.321978
vt -2.389856 0.001229
vt -1.830709 -0.029349
vt -1.695741 0.004190
vt -3.186894 -0.276015
vt -2.887802 -0.107886
vt -2.633985 -0.086727
vt -1.470643 -0.760174
vt -2.254888 -0.751403
vt -2.389856 -0.784943
vt -2.875491 -0.684253
vt -0.898703 -0.266255
vt -0.993268 -0.315409
vt -0.898703 -0.504738
vt 2.188039 -0.784285
vt 1.834752 -0.028534
vt 1.429077 -0.784943
vt 3.678297 1.024451
vt 3.495502 1.779395
vt 3.055134 1.021145
vt 2.694091 1.775431
vt 2.402090 1.018385
vt 2.938711 -0.784943
vt 2.649852 -0.028631
vt 1.236932 0.303846
vt 0.534358 0.375104
vt 0.878921 -0.147082
vt 0.403741 1.239295
vt 0.609960 0.566799
vt 0.841809 1.151096
vt 0.298943 -0.218958
vt 0.465249 -0.201130
vt 0.626610 1.551743
vt 0.676607 -0.201130
vt 0.316795 -0.201130
vt 0.455089 1.552581
vt 0.335029 1.550632
vt 0.677044 1.552600
vt 0.619793 -0.201130
vt 0.598921 0.754215
vt 0.558539 0.603019
vt 0.394049 0.571112
vt 0.338316 0.721457
vt 0.793724 0.480966
vt 0.620503 0.462597
vt 0.449812 0.386640
vt 0.221155 0.407919
vt 0.536444 0.225957
vt 0.788205 1.013776
vt -0.049312 1.016630
vt 0.205782 0.005494
vt 0.788205 0.003704
vt -0.380410 0.008073
vt 3.037390 1.016462
vt 2.402089 1.018385
vt 2.402089 0.008241
vt 3.081222 0.006205
vt 3.967533 1.013909
vt 3.996980 0.003704
vt -2.312841 1.017671
vt -3.186894 1.021156
vt -3.175686 0.010947
vt -2.644710 0.008835
vt -1.509125 1.014365
vt -2.060869 0.006473
vt -1.509125 0.004190
vt 0.788205 1.019342
vt 0.814777 0.009169
vt 1.374822 0.007638
vt -1.306000 -0.130343
vt -1.210106 -0.096500
vt 2.402089 1.013902
vt 2.402089 0.003704
vt -0.898704 1.021133
vt -0.893949 0.010864
vt 0.648236 -0.784943
vt 1.338210 -0.579162
vt 1.338210 -0.259389
vt 0.911664 -0.068887
vt 0.359292 0.003705
vt -0.208729 -0.014128
vt -0.898703 -0.219909
vt -0.898703 -0.539682
vt -0.285824 -0.779478
vt -1.451612 -0.694026
vt -1.070060 -0.521797
vt 4.174436 1.027481
vt 4.174436 1.783521
vt 1.657965 1.775321
vt 1.604767 1.019431
vt 2.161597 1.019342
vt 2.076312 1.775258
vt 1.338210 -0.029347
vt -0.286440 1.781194
vt -0.278698 1.025208
vt 0.276893 1.028901
vt 0.276893 1.784943
vt 0.844338 1.775244
vt 0.788205 1.019342
vt 3.186030 -0.029913
vt -0.888013 1.777236
vt -0.898703 1.021134
vt 0.382394 0.469025
vt 0.434327 0.602743
vt -0.103895 0.956356
vt -0.247377 0.558924
vt 1.163259 0.869679
vt -0.163259 0.130321
s 0
usemtl Material
f 19/1/1 18/2/1 16/3/1
f 13/4/2 27/5/2 28/6/2
f 19/7/2 21/8/2 1/9/2
f 13/4/2 28/6/2 15/10/2
f 17/11/2 29/12/2 19/7/2
f 8/13/2 26/14/2 10/15/2
f 11/16/2 27/5/2 13/4/2
f 4/17/2 23/18/2 6/19/2
f 19/7/2 29/12/2 21/8/2
f 27/20/3 36/21/3 28/22/3
f 24/23/4 33/24/4 25/25/4
f 25/25/5 34/26/5 26/27/5
f 26/28/6 35/29/6 27/20/6
f 33/30/2 41/31/2 34/32/2
f 30/33/2 40/34/2 31/35/2
f 34/32/2 41/31/2 35/36/2
f 42/37/7 46/38/7 39/39/7
f 41/40/8 44/41/8 45/42/8
f 39/39/9 43/43/9 40/44/9
f 39/39/10 46/38/10 43/43/10
f 41/40/11 45/42/11 42/37/11
f 40/44/12 44/41/12 41/40/12
f 47/45/13 43/46/13 46/47/13 51/48/13
f 43/46/14 48/49/14 44/50/14
f 45/51/15 50/52/15 46/47/15
f 44/50/16 49/53/16 45/51/16
f 5/54/17 3/55/17 4/56/17 6/57/17
f 2/58/18 4/56/18 3/55/18
f 7/59/19 5/60/19 6/61/19 8/62/19
f 9/63/20 7/59/20 8/62/20 10/64/20
f 12/65/21 9/66/21 10/67/21 11/68/21
f 14/69/22 12/65/22 13/70/22 15/71/22
f 11/68/23 13/70/23 12/65/23
f 16/3/24 14/72/24 15/73/24 17/74/24
f 22/75/2 23/18/2 4/17/2 2/76/2
f 17/74/25 19/1/25 16/3/25
f 20/77/26 18/2/26 19/1/26 1/78/26
f 3/55/27 20/79/27 1/80/27 2/58/27
f 9/81/28 12/82/28 14/83/28 16/84/28 18/85/28 20/86/28 3/87/28 5/88/28 7/89/28
f 26/14/2 27/5/2 11/16/2 10/15/2
f 25/90/2 8/13/2 6/19/2 24/91/2
f 8/13/2 25/90/2 26/14/2
f 21/8/2 22/75/2 2/76/2 1/9/2
f 28/6/2 29/12/2 17/11/2 15/10/2
f 6/19/2 23/18/2 24/91/2
f 33/24/29 24/23/29 23/92/29 32/93/29
f 27/20/30 35/29/30 36/21/30
f 38/94/31 29/95/31 28/96/31 37/97/31
f 28/22/32 36/21/32 37/98/32
f 25/25/33 33/24/33 34/26/33
f 31/99/34 22/100/34 21/101/34 30/102/34
f 30/103/35 21/104/35 29/95/35 38/94/35
f 26/28/36 34/105/36 35/29/36
f 32/106/37 23/107/37 22/100/37 31/99/37
f 42/108/2 39/109/2 38/110/2 37/111/2
f 33/30/2 32/112/2 40/34/2
f 33/30/2 40/34/2 41/31/2
f 37/111/2 36/113/2 42/108/2
f 41/31/2 42/108/2 36/113/2 35/36/2
f 30/33/2 39/109/2 40/34/2
f 30/33/2 38/110/2 39/109/2
f 32/112/2 31/35/2 40/34/2
f 40/44/38 43/43/38 44/41/38
f 42/37/39 45/42/39 46/38/39
f 47/45/40 51/48/40 50/52/40 49/53/40 48/49/40
f 43/46/41 47/45/41 48/49/41
f 45/51/42 49/53/42 50/52/42
f 44/50/43 48/49/43 49/53/43
f 46/47/44 50/52/44 51/48/44
