# Blender 4.4.3
# www.blender.org
mtllib House_1_no_door.mtl
o Cube
v 1.751809 1.452914 -1.000000
v 1.751809 0.171004 -1.000000
v 1.751809 1.452914 1.000000
v 1.751809 0.171004 1.000000
v -1.984333 1.452914 -1.000000
v -1.984333 0.171004 -1.000000
v -1.984333 1.452914 1.000000
v -1.984333 0.171004 1.000000
v 1.751809 1.788023 -1.000000
v 1.751809 1.788023 1.000000
v -1.984333 1.788023 -1.000000
v -1.984333 1.788023 1.000000
v 1.268475 2.376173 -1.000000
v 1.268475 2.376173 1.000000
v -1.521516 2.376173 -1.000000
v -1.521516 2.376173 1.000000
v 0.401889 0.171004 -1.000000
v 0.401889 1.452914 1.000000
v 0.401889 0.171004 1.000000
v 0.401889 1.452914 -1.000000
v 0.401889 1.788023 1.000000
v 0.401889 1.788023 -1.000000
v 0.260412 2.376173 1.000000
v 0.260412 2.376173 -1.000000
v 1.145722 0.171004 1.000000
v 1.145722 1.452914 -1.000000
v 1.145722 1.788023 -1.000000
v 0.815875 2.376173 -1.000000
v 1.145722 0.171004 -1.000000
v 1.145722 1.452914 1.000000
v 1.145722 1.788023 1.000000
v 0.815875 2.376173 1.000000
v -1.336644 0.171004 -1.000000
v -1.336644 1.452914 1.000000
v -1.336644 1.788023 1.000000
v -1.037850 2.376173 1.000000
v -1.336644 0.171004 1.000000
v -1.336644 1.452914 -1.000000
v -1.336644 1.788023 -1.000000
v -1.037850 2.376173 -1.000000
v -0.693250 0.171004 1.000000
v -0.693250 1.452914 -1.000000
v -0.693250 1.788023 -1.000000
v -0.557391 2.376173 -1.000000
v -0.693250 0.171004 -1.000000
v -0.693250 1.452914 1.000000
v -0.693250 1.788023 1.000000
v -0.557391 2.376173 1.000000
v 1.751809 0.736147 -1.000000
v -1.984333 0.736147 1.000000
v 1.751809 0.736147 1.000000
v -1.984333 0.736147 -1.000000
v 0.401889 0.736147 -1.000000
v 0.401889 0.736147 1.000000
v 1.145722 0.736147 1.000000
v 1.145722 0.736147 -1.000000
v -1.336644 0.736147 -1.000000
v -1.336644 0.736147 1.000000
v -0.693250 0.736147 1.000000
v -0.693250 0.736147 -1.000000
v -1.984333 1.417076 1.000000
v 1.751809 1.417076 -1.000000
v 1.751809 1.417076 1.000000
v -1.984333 1.417076 -1.000000
v 0.401889 1.417076 -1.000000
v 0.401889 1.417076 1.000000
v 1.145722 1.417076 1.000000
v 1.145722 1.417076 -1.000000
v -1.336644 1.417076 -1.000000
v -1.336644 1.417076 1.000000
v -0.693250 1.417076 1.000000
v -0.693250 1.417076 -1.000000
v 1.751809 1.349774 -1.000000
v 1.751809 1.349774 1.000000
v -1.984333 1.349774 -1.000000
v 0.401889 1.349774 -1.000000
v 0.401889 1.349774 1.000000
v 1.145722 1.349774 1.000000
v 1.145722 1.349774 -1.000000
v -1.336644 1.349774 -1.000000
v -1.336644 1.349774 1.000000
v -0.693250 1.349774 1.000000
v -0.693250 1.349774 -1.000000
v -1.984333 1.349774 1.000000
v 0.425884 0.171004 -1.000000
v 0.425884 1.452914 1.000000
v 0.425884 1.788023 1.000000
v 0.278331 2.376173 1.000000
v 0.425884 0.171004 1.000000
v 0.425884 1.452914 -1.000000
v 0.425884 1.788023 -1.000000
v 0.278331 2.376173 -1.000000
v 0.425884 0.736147 -1.000000
v 0.425884 0.736147 1.000000
v 0.425884 1.417076 -1.000000
v 0.425884 1.417076 1.000000
v 0.425884 1.349774 1.000000
v 0.425884 1.349774 -1.000000
v 1.125947 0.171004 1.000000
v 1.125947 1.452914 -1.000000
v 1.125947 1.788023 -1.000000
v 0.801108 2.376173 -1.000000
v 1.125947 0.736147 -1.000000
v 1.125947 1.417076 -1.000000
v 1.125947 1.349774 -1.000000
v 1.125947 0.171004 -1.000000
v 1.125947 1.452914 1.000000
v 1.125947 1.788023 1.000000
v 0.801108 2.376173 1.000000
v 1.125947 0.736147 1.000000
v 1.125947 1.417076 1.000000
v 1.125947 1.349774 1.000000
v -1.279362 0.793727 1.000000
v -0.751666 0.793727 1.000000
v -0.751666 1.318675 1.000000
v -1.276614 1.318675 1.000000
v -1.271577 0.801452 0.971590
v -0.759411 0.801452 0.971590
v -0.759411 1.310951 0.971590
v -1.268910 1.310951 0.971590
v -1.336644 1.349774 1.040788
v -1.336644 0.736147 1.040788
v -0.693250 1.349774 1.040788
v -0.693250 0.736147 1.040788
v -0.693250 1.417076 1.040788
v -1.336644 1.417076 1.040788
v -1.279362 0.793727 1.040788
v -0.751666 0.793727 1.040788
v -0.751666 1.318675 1.040788
v -1.276614 1.318675 1.040788
v 1.125947 1.417076 1.076999
v 0.425884 1.417076 1.076999
v 1.125947 1.349774 1.076999
v 0.425884 1.349774 1.076999
v 1.744738 1.452914 -0.992929
v 1.746035 0.176778 -0.994227
v 1.744738 1.452914 0.992929
v 1.746035 0.176778 0.994227
v -1.977262 1.452914 -0.992929
v -1.978560 0.176778 -0.994227
v -1.977262 1.452914 0.992929
v -1.978560 0.176778 0.994227
v 1.744563 1.785427 -0.993615
v 1.744563 1.785427 0.993615
v -1.977075 1.785509 -0.993597
v -1.977075 1.785509 0.993597
v 1.265131 2.369096 -0.993776
v 1.265131 2.369096 0.993776
v -1.518091 2.369120 -0.993793
v -1.518091 2.369120 0.993793
v 0.401889 0.178075 -0.992929
v 0.401889 1.452914 0.990000
v 0.401889 0.178075 0.992929
v 0.401889 1.452914 -0.990000
v 0.401889 1.788023 0.990000
v 0.401889 1.788023 -0.990000
v 0.260412 2.369102 0.992929
v 0.260412 2.369102 -0.992929
v 1.145722 0.178075 0.992929
v 1.145722 1.452914 -0.990000
v 1.145722 1.788023 -0.990000
v 0.815875 2.369102 -0.992929
v 1.145722 0.178075 -0.992929
v 1.145722 1.452914 0.990000
v 1.145722 1.788023 0.990000
v 0.815875 2.369102 0.992929
v -1.336644 0.178075 -0.992929
v -1.336644 1.452914 0.990000
v -1.336644 1.788023 0.990000
v -1.037850 2.369102 0.992929
v -1.336644 0.178075 0.992929
v -1.336644 1.452914 -0.990000
v -1.336644 1.788023 -0.990000
v -1.037850 2.369102 -0.992929
v -0.693250 0.178075 0.992929
v -0.693250 1.452914 -0.990000
v -0.693250 1.788023 -0.990000
v -0.557391 2.369102 -0.992929
v -0.693250 0.178075 -0.992929
v -0.693250 1.452914 0.990000
v -0.693250 1.788023 0.990000
v -0.557391 2.369102 0.992929
v 1.744738 0.736147 -0.992929
v -1.977262 0.736147 0.992929
v 1.744738 0.736147 0.992929
v -1.977262 0.736147 -0.992929
v 0.401889 0.736147 -0.990000
v 0.401889 0.736147 0.990000
v 1.145722 0.736147 0.990000
v 1.145722 0.736147 -0.990000
v -1.336644 0.736147 -0.990000
v -1.333629 0.739162 0.990955
v -0.696265 0.739162 0.990955
v -0.693250 0.736147 -0.990000
v -1.977262 1.417076 0.992929
v 1.744738 1.417076 -0.992929
v 1.744738 1.417076 0.992929
v -1.977262 1.417076 -0.992929
v 0.401889 1.417076 -0.990000
v 0.401889 1.417076 0.990000
v 1.145722 1.417076 0.990000
v 1.145722 1.417076 -0.990000
v -1.336644 1.417076 -0.990000
v -1.333629 1.414060 0.990955
v -0.696265 1.414060 0.990955
v -0.693250 1.417076 -0.990000
v 1.744738 1.349774 -0.992929
v 1.744738 1.349774 0.992929
v -1.977262 1.349774 -0.992929
v 0.401889 1.349774 -0.990000
v 0.401889 1.349774 0.990000
v 1.145722 1.349774 0.990000
v 1.145722 1.349774 -0.990000
v -1.336644 1.349774 -0.990000
v -1.329573 1.349774 0.992929
v -0.700321 1.349774 0.992929
v -0.693250 1.349774 -0.990000
v -1.977262 1.349774 0.992929
v 0.425884 0.178075 -0.992929
v 0.425884 1.452914 0.990000
v 0.425884 1.788023 0.990000
v 0.278331 2.369102 0.992929
v 0.425884 0.179948 0.995528
v 0.425884 1.452914 -0.990000
v 0.425884 1.788023 -0.990000
v 0.278331 2.369102 -0.992929
v 0.425884 0.736147 -0.990000
v 0.425884 0.736147 0.990000
v 0.425884 1.417076 -0.990000
v 0.428899 1.414060 0.990955
v 0.429966 1.353857 0.991835
v 0.425884 1.349774 -0.990000
v 1.125947 0.179948 0.995528
v 1.125947 1.452914 -0.990000
v 1.125947 1.788023 -0.990000
v 0.801108 2.369102 -0.992929
v 1.125947 0.736147 -0.990000
v 1.125947 1.417076 -0.990000
v 1.125947 1.349774 -0.990000
v 1.125947 0.178075 -0.992929
v 1.125947 1.452914 0.990000
v 1.125947 1.788023 0.990000
v 0.801108 2.369102 0.992929
v 1.125947 0.736147 0.990000
v 1.122931 1.414060 0.990955
v 1.121864 1.353857 0.991835
v -1.286350 0.786777 0.998302
v -0.744696 0.786759 0.998305
v -0.744696 1.325644 0.998305
v -1.283566 1.325662 0.998309
v -1.276551 0.796501 0.964466
v -0.754449 0.796487 0.964467
v -0.754449 1.315915 0.964467
v -1.273859 1.315928 0.964467
v -1.329573 1.349774 1.033717
v -1.330871 0.741920 1.035014
v -0.700321 1.349774 1.033717
v -0.699024 0.741920 1.035014
v -0.699024 1.411302 1.035014
v -1.330871 1.411302 1.035014
v -1.282376 0.790729 1.031736
v -0.748650 0.790712 1.031742
v -0.748650 1.321691 1.031742
v -1.279631 1.321708 1.031749
v 1.120173 1.411302 1.071226
v 0.431657 1.411302 1.071226
v 1.120173 1.355548 1.071226
v 0.431657 1.355548 1.071226
vn -1.0000 -0.0000 -0.0000
vn -0.0000 -0.0000 1.0000
vn -0.0000 -1.0000 -0.0000
vn -0.0000 -0.0000 -1.0000
vn 0.7726 0.6349 -0.0000
vn -0.0000 1.0000 -0.0000
vn -0.7859 0.6184 -0.0000
vn 1.0000 -0.0000 -0.0000
vn -0.0000 -0.9650 0.2624
vn 1.0000 -0.0052 -0.0000
vn -0.0000 0.9650 0.2624
vn 0.9648 -0.0051 0.2630
vn -0.9648 -0.0000 0.2630
vn 1.0000 -0.0006 -0.0000
vn -0.0038 -0.0129 -0.9999
vn 0.0022 1.0000 -0.0000
vn 0.0049 -0.0000 1.0000
vn -0.7727 -0.6347 -0.0000
vn -0.0051 0.0010 1.0000
vn 0.0055 0.0010 -1.0000
vn 0.7860 -0.6182 -0.0000
vn 0.0043 0.0056 -1.0000
vn -0.0040 0.0053 1.0000
vn -1.0000 -0.0005 -0.0000
vn -0.0000 0.0050 1.0000
vn -0.0000 0.0050 -1.0000
vn 0.0180 -0.0120 -0.9998
vn 0.0049 -0.0000 -1.0000
vn 0.0055 0.0010 1.0000
vn 0.0043 0.0056 1.0000
vn 0.0473 0.9989 -0.0005
vn -0.0020 1.0000 -0.0000
vn -0.0046 -0.0000 1.0000
vn -0.0051 0.0010 -1.0000
vn -0.0040 0.0053 -1.0000
vn -0.0000 -0.0246 -0.9997
vn -0.0004 -0.0128 -0.9999
vn -0.0000 -0.0052 1.0000
vn -0.0004 -0.0044 -1.0000
vn -0.0000 -0.0035 -1.0000
vn -0.0033 -0.0038 1.0000
vn 0.0035 -0.0038 -1.0000
vn 0.0544 -0.0076 -0.9985
vn -1.0000 -0.0023 -0.0000
vn 0.0035 -0.0038 1.0000
vn 1.0000 -0.0023 -0.0000
vn -0.0025 -0.0029 -1.0000
vn -0.0017 -0.0149 -0.9999
vn 0.9931 -0.0000 0.1174
vn 0.0507 -0.0065 -0.9987
vn -0.0016 -0.0150 -0.9999
vn -0.0015 0.0016 -1.0000
vn 0.0351 0.0014 -0.9994
vn -0.9986 0.0423 -0.0311
vn -0.0018 0.0016 -1.0000
vn 0.9996 0.0090 -0.0278
vn -0.0390 0.9992 -0.0005
vn -0.0216 -0.0119 -0.9997
vn -0.0659 -0.0076 -0.9978
vn -0.0598 -0.0064 -0.9982
vn -0.0419 0.0014 -0.9991
vn -0.0000 1.0000 -0.0009
vn 0.9995 -0.0044 -0.0324
vn -0.0000 0.9611 -0.2764
vn -0.0000 -0.9931 0.1174
vn -0.9931 0.0051 0.1174
vn -0.0000 -0.9611 -0.2763
vn -0.9609 0.0050 -0.2769
vn 0.9609 -0.0000 -0.2769
vn -0.0000 0.0211 -0.9998
vn -0.0000 -0.0670 -0.9978
vn -0.0530 -0.0009 -0.9986
vn -0.0000 0.0700 -0.9975
vn 0.0533 -0.0011 -0.9986
vn -0.9995 -0.0044 -0.0324
vn -0.0000 0.9980 -0.0625
vn -0.0000 -0.9980 -0.0625
vn -0.0000 0.9931 0.1174
vn 0.9986 0.0423 -0.0311
vn -0.9996 0.0090 -0.0278
vn -0.0000 0.9998 -0.0213
vn -0.0000 -0.9994 -0.0343
vn -0.0000 -0.8944 -0.4472
vn 0.9758 -0.0036 0.2185
vn -0.0000 0.4472 0.8944
vn -0.9758 -0.0036 0.2185
vt 0.590811 0.403109
vt 0.377500 0.403109
vt 0.377500 0.456721
vt 0.590811 0.456721
vt 0.251191 0.568578
vt 0.251191 0.579265
vt 0.122435 0.579265
vt 0.122435 0.568578
vt 0.377500 0.397376
vt 0.590811 0.397376
vt 0.609976 0.263302
vt 0.609976 0.210348
vt 0.726471 0.210348
vt 0.726471 0.263302
vt 0.560203 0.472639
vt 0.560203 0.475468
vt 0.592097 0.475468
vt 0.592097 0.472639
vt 0.351420 0.729799
vt 0.619495 0.729799
vt 0.619495 0.848050
vt 0.351420 0.848050
vt 0.429575 0.475468
vt 0.395492 0.475468
vt 0.395492 0.501920
vt 0.429575 0.501920
vt 0.744669 0.579265
vt 0.865155 0.579265
vt 0.865155 0.679190
vt 0.744669 0.679190
vt 0.450667 0.842615
vt 0.425736 0.842615
vt 0.425736 0.687977
vt 0.450667 0.687977
vt 0.769071 0.844512
vt 0.679097 0.844512
vt 0.251191 0.679190
vt 0.122435 0.679190
vt 0.214440 0.848419
vt 0.310589 0.848419
vt 0.601569 0.679190
vt 0.596799 0.679190
vt 0.568675 0.848419
vt 0.572237 0.848419
vt 0.379093 0.679190
vt 0.596799 0.679190
vt 0.568675 0.844512
vt 0.406101 0.844512
vt 0.518511 0.842615
vt 0.517587 0.842615
vt 0.517587 0.687977
vt 0.518511 0.687977
vt 0.379093 0.579265
vt 0.596799 0.579265
vt 0.522324 0.475468
vt 0.521061 0.475468
vt 0.521061 0.501920
vt 0.522324 0.501920
vt 0.463432 0.472639
vt 0.463432 0.475468
vt 0.521061 0.472639
vt 0.609976 0.423974
vt 0.609976 0.328291
vt 0.726471 0.328291
vt 0.726471 0.423974
vt 0.601569 0.568578
vt 0.601569 0.579265
vt 0.596799 0.568578
vt 0.865155 0.568578
vt 0.744669 0.568578
vt 0.560203 0.501920
vt 0.592097 0.501920
vt 0.569549 0.842615
vt 0.546219 0.842615
vt 0.546219 0.687977
vt 0.569549 0.687977
vt 0.865155 0.679190
vt 0.744669 0.679190
vt 0.679097 0.848419
vt 0.769071 0.848419
vt 0.740737 0.679190
vt 0.676161 0.844512
vt 0.740737 0.579265
vt 0.559163 0.472639
vt 0.559163 0.475468
vt 0.609976 0.265030
vt 0.726471 0.265030
vt 0.609976 0.536777
vt 0.609976 0.480188
vt 0.726471 0.480188
vt 0.726471 0.536777
vt 0.395492 0.472639
vt 0.429575 0.472639
vt 0.251191 0.679190
vt 0.122435 0.679190
vt 0.310589 0.844512
vt 0.214440 0.844512
vt 0.379093 0.679190
vt 0.406101 0.848419
vt 0.475433 0.842615
vt 0.475433 0.687977
vt 0.463432 0.501920
vt 0.379093 0.568578
vt 0.429575 0.374283
vt 0.429575 0.418891
vt 0.463432 0.418891
vt 0.463432 0.374283
vt 0.596799 0.197012
vt 0.596799 0.365532
vt 0.379093 0.365532
vt 0.379093 0.197012
vt 0.251191 0.365532
vt 0.251191 0.197012
vt 0.395492 0.374283
vt 0.395492 0.418891
vt 0.559163 0.374283
vt 0.559163 0.418891
vt 0.560203 0.418891
vt 0.560203 0.374283
vt 0.865155 0.197012
vt 0.865155 0.365532
vt 0.744669 0.365532
vt 0.744669 0.197012
vt 0.601569 0.197012
vt 0.601569 0.365532
vt 0.521061 0.418891
vt 0.521061 0.374283
vt 0.590811 0.198025
vt 0.590811 0.288439
vt 0.377500 0.288439
vt 0.377500 0.198025
vt 0.592097 0.418891
vt 0.592097 0.374283
vt 0.122435 0.365532
vt 0.122435 0.197012
vt 0.429575 0.467327
vt 0.463432 0.467327
vt 0.596799 0.548509
vt 0.379093 0.548509
vt 0.367481 0.539236
vt 0.367481 0.382702
vt 0.367481 0.539236
vt 0.395492 0.467327
vt 0.559163 0.467327
vt 0.560203 0.467327
vt 0.865155 0.548509
vt 0.744669 0.548509
vt 0.601569 0.548509
vt 0.521061 0.467327
vt 0.590811 0.386609
vt 0.377500 0.386609
vt 0.592097 0.467327
vt 0.251191 0.548509
vt 0.122435 0.548509
vt 0.379093 0.568578
vt 0.522324 0.467327
vt 0.522324 0.418891
vt 0.601569 0.568578
vt 0.522324 0.472639
vt 0.522324 0.374283
vt 0.609976 0.326195
vt 0.726471 0.326195
vt 0.601569 0.679190
vt 0.572237 0.844512
vt 0.740737 0.568578
vt 0.559163 0.501920
vt 0.545458 0.842615
vt 0.545458 0.687977
vt 0.740737 0.679190
vt 0.676161 0.848419
vt 0.740737 0.365532
vt 0.740737 0.197012
vt 0.740737 0.548509
vt 0.263125 0.539236
vt 0.264656 0.536933
vt 0.365941 0.536933
vt 0.262578 0.382702
vt 0.263125 0.539236
vt 0.264126 0.385005
vt 0.365941 0.385005
vt 0.251191 0.568578
vt 0.740737 0.568578
s 0
usemtl Material
f 5/1/1 7/2/1 12/3/1 11/4/1
f 70/5/2 34/6/2 7/7/2 61/8/2
f 61/9/1 7/2/1 5/1/1 64/10/1
f 29/11/3 2/12/3 4/13/3 25/14/3
f 68/15/4 26/16/4 1/17/4 62/18/4
f 10/19/5 9/20/5 13/21/5 14/22/5
f 38/23/4 5/24/4 11/25/4 39/26/4
f 30/27/2 3/28/2 10/29/2 31/30/2
f 40/31/6 15/32/6 16/33/6 36/34/6
f 11/20/7 12/19/7 16/22/7 15/21/7
f 31/30/2 10/29/2 14/35/2 32/36/2
f 39/37/4 11/38/4 15/39/4 40/40/4
f 62/10/8 1/1/8 9/4/8 10/3/8 3/2/8 63/9/8
f 91/41/4 22/42/4 24/43/4 92/44/4
f 47/45/2 21/46/2 23/47/2 48/48/2
f 92/49/6 24/50/6 23/51/6 88/52/6
f 46/53/2 18/54/2 21/46/2 47/45/2
f 90/55/4 20/56/4 22/57/4 91/58/4
f 72/59/4 42/60/4 20/56/4 65/61/4
f 45/62/3 17/63/3 19/64/3 41/65/3
f 96/66/2 86/67/2 18/54/2 66/68/2
f 63/69/2 3/28/2 30/27/2 67/70/2
f 1/17/4 26/16/4 27/71/4 9/72/4
f 13/73/6 28/74/6 32/75/6 14/76/6
f 9/77/4 27/78/4 28/79/4 13/80/4
f 108/81/2 31/30/2 32/36/2 109/82/2
f 107/83/2 30/27/2 31/30/2 108/81/2
f 104/84/4 100/85/4 26/16/4 68/15/4
f 106/86/3 29/11/3 25/14/3 99/87/3
f 6/88/3 33/89/3 37/90/3 8/91/3
f 64/92/4 5/24/4 38/23/4 69/93/4
f 7/7/2 34/6/2 35/94/2 12/95/2
f 12/95/2 35/94/2 36/96/2 16/97/2
f 43/98/4 39/37/4 40/40/4 44/99/4
f 44/100/6 40/31/6 36/34/6 48/101/6
f 42/60/4 38/23/4 39/26/4 43/102/4
f 71/103/2 46/53/2 34/6/2 70/5/2
f 66/68/2 18/54/2 46/53/2 71/103/2
f 20/56/4 42/60/4 43/102/4 22/57/4
f 24/50/6 44/100/6 48/101/6 23/51/6
f 22/42/4 43/98/4 44/99/4 24/43/4
f 33/89/3 45/62/3 41/65/3 37/90/3
f 69/93/4 38/23/4 42/60/4 72/59/4
f 34/6/2 46/53/2 47/45/2 35/94/2
f 35/94/2 47/45/2 48/48/2 36/96/2
f 33/104/4 57/105/4 60/106/4 45/107/4
f 19/108/2 54/109/2 59/110/2 41/111/2
f 41/111/2 59/110/2 58/112/2 37/113/2
f 6/114/4 52/115/4 57/105/4 33/104/4
f 106/116/4 103/117/4 56/118/4 29/119/4
f 4/120/2 51/121/2 55/122/2 25/123/2
f 89/124/2 94/125/2 54/109/2 19/108/2
f 45/107/4 60/106/4 53/126/4 17/127/4
f 2/128/8 49/129/8 51/130/8 4/131/8
f 29/119/4 56/118/4 49/132/4 2/133/4
f 8/131/1 50/130/1 52/129/1 6/128/1
f 37/113/2 58/112/2 50/134/2 8/135/2
f 80/136/4 69/93/4 72/59/4 83/137/4
f 77/138/2 66/68/2 71/103/2 82/139/2
f 115/140/1 114/141/1 128/141/1 129/142/1
f 75/143/4 64/92/4 69/93/4 80/136/4
f 105/144/4 104/84/4 68/15/4 79/145/4
f 74/146/2 63/69/2 67/70/2 78/147/2
f 97/148/2 96/66/2 66/68/2 77/138/2
f 83/137/4 72/59/4 65/61/4 76/149/4
f 73/150/8 62/10/8 63/9/8 74/151/8
f 79/145/4 68/15/4 62/18/4 73/152/4
f 84/151/1 61/9/1 64/10/1 75/150/1
f 81/153/2 70/5/2 61/8/2 84/154/2
f 58/112/2 81/153/2 84/154/2 50/134/2
f 50/130/1 84/151/1 75/150/1 52/129/1
f 56/118/4 79/145/4 73/152/4 49/132/4
f 49/129/8 73/150/8 74/151/8 51/130/8
f 60/106/4 83/137/4 76/149/4 53/126/4
f 94/125/2 97/148/2 77/138/2 54/109/2
f 51/121/2 74/146/2 78/147/2 55/122/2
f 103/117/4 105/144/4 79/145/4 56/118/4
f 52/115/4 75/143/4 80/136/4 57/105/4
f 82/139/8 71/103/8 125/155/8 123/139/8
f 54/109/2 77/138/2 82/139/2 59/110/2
f 57/105/4 80/136/4 83/137/4 60/106/4
f 53/126/4 76/149/4 98/156/4 93/157/4
f 96/66/1 97/148/1 134/148/1 132/158/1
f 76/149/4 65/61/4 95/159/4 98/156/4
f 17/127/4 53/126/4 93/157/4 85/160/4
f 17/63/3 85/161/3 89/162/3 19/64/3
f 65/61/4 20/56/4 90/55/4 95/159/4
f 18/54/2 86/67/2 87/163/2 21/46/2
f 21/46/2 87/163/2 88/164/2 23/47/2
f 111/165/2 107/83/2 86/67/2 96/66/2
f 100/85/4 90/55/4 91/58/4 101/166/4
f 102/167/6 92/49/6 88/52/6 109/168/6
f 101/169/4 91/41/4 92/44/4 102/170/4
f 27/78/4 101/169/4 102/170/4 28/79/4
f 28/74/6 102/167/6 109/168/6 32/75/6
f 26/16/4 100/85/4 101/166/4 27/71/4
f 67/70/2 30/27/2 107/83/2 111/165/2
f 25/123/2 55/122/2 110/171/2 99/172/2
f 78/147/2 67/70/2 111/165/2 112/173/2
f 55/122/2 78/147/2 112/173/2 110/171/2
f 93/157/4 98/156/4 105/144/4 103/117/4
f 98/156/4 95/159/4 104/84/4 105/144/4
f 85/160/4 93/157/4 103/117/4 106/116/4
f 85/161/3 106/86/3 99/87/3 89/162/3
f 95/159/4 90/55/4 100/85/4 104/84/4
f 86/67/2 107/83/2 108/81/2 87/163/2
f 87/163/2 108/81/2 109/82/2 88/164/2
f 81/153/1 58/112/1 122/112/1 121/153/1
f 115/140/9 116/174/9 120/175/9 119/176/9
f 114/141/6 113/177/6 127/177/6 128/141/6
f 113/177/10 116/174/10 130/178/10 127/177/10
f 117/179/2 118/180/2 119/176/2 120/175/2
f 113/177/11 114/141/11 118/180/11 117/179/11
f 116/174/12 113/177/12 117/179/12 120/175/12
f 114/141/13 115/140/13 119/176/13 118/180/13
f 123/139/2 125/155/2 126/181/2 121/153/2
f 124/110/2 128/141/2 127/177/2 122/112/2
f 122/112/2 127/177/2 130/178/2 121/153/2
f 121/153/2 130/178/2 129/142/2 123/139/2
f 128/141/2 124/110/2 123/139/2 129/142/2
f 59/110/8 82/139/8 123/139/8 124/110/8
f 58/112/3 59/110/3 124/110/3 122/112/3
f 71/103/6 70/5/6 126/181/6 125/155/6
f 116/174/3 115/140/3 129/142/3 130/178/3
f 70/5/1 81/153/1 121/153/1 126/181/1
f 133/173/2 131/182/2 132/158/2 134/148/2
f 112/173/8 111/165/8 131/182/8 133/173/8
f 97/148/3 112/173/3 133/173/3 134/148/3
f 111/165/6 96/66/6 132/158/6 131/182/6
f 139/1/14 145/4/14 146/3/14 141/2/14
f 204/5/15 195/8/15 141/7/15 168/6/15
f 195/9/8 198/10/8 139/1/8 141/2/8
f 163/11/16 159/14/16 138/13/16 136/12/16
f 202/15/17 196/18/17 135/17/17 160/16/17
f 144/19/18 148/22/18 147/21/18 143/20/18
f 172/23/19 173/26/19 145/25/19 139/24/19
f 164/27/20 165/30/20 144/29/20 137/28/20
f 174/31/3 170/34/3 150/33/3 149/32/3
f 145/20/21 149/21/21 150/22/21 146/19/21
f 165/30/22 166/36/22 148/35/22 144/29/22
f 173/37/23 174/40/23 149/39/23 145/38/23
f 196/10/24 197/9/24 137/2/24 144/3/24 143/4/24 135/1/24
f 225/41/25 226/44/25 158/43/25 156/42/25
f 181/45/26 182/48/26 157/47/26 155/46/26
f 226/49/3 222/52/3 157/51/3 158/50/3
f 180/53/4 181/45/4 155/46/4 152/54/4
f 224/55/2 225/58/2 156/57/2 154/56/2
f 206/59/2 199/61/2 154/56/2 176/60/2
f 179/62/6 175/65/6 153/64/6 151/63/6
f 230/66/27 200/68/27 152/54/27 220/67/27
f 197/69/28 201/70/28 164/27/28 137/28/28
f 135/17/29 143/72/29 161/71/29 160/16/29
f 147/73/3 148/76/3 166/75/3 162/74/3
f 143/77/30 147/80/30 162/79/30 161/78/30
f 242/81/26 243/82/26 166/36/26 165/30/26
f 241/83/4 242/81/4 165/30/4 164/27/4
f 238/84/2 202/15/2 160/16/2 234/85/2
f 240/86/31 233/87/31 159/14/31 163/11/31
f 140/88/32 142/91/32 171/90/32 167/89/32
f 198/92/33 203/93/33 172/23/33 139/24/33
f 141/7/34 146/95/34 169/94/34 168/6/34
f 146/95/35 150/97/35 170/96/35 169/94/35
f 177/98/25 178/99/25 174/40/25 173/37/25
f 178/100/3 182/101/3 170/34/3 174/31/3
f 176/60/2 177/102/2 173/26/2 172/23/2
f 205/103/36 204/5/36 168/6/36 180/53/36
f 200/68/37 205/103/37 180/53/37 152/54/37
f 154/56/2 156/57/2 177/102/2 176/60/2
f 158/50/3 157/51/3 182/101/3 178/100/3
f 156/42/25 158/43/25 178/99/25 177/98/25
f 167/89/6 171/90/6 175/65/6 179/62/6
f 203/93/2 206/59/2 176/60/2 172/23/2
f 168/6/4 169/94/4 181/45/4 180/53/4
f 169/94/26 170/96/26 182/48/26 181/45/26
f 167/104/38 179/107/38 194/106/38 191/105/38
f 153/108/39 175/111/39 193/110/39 188/109/39
f 175/111/40 171/113/40 192/112/40 193/110/40
f 140/114/41 167/104/41 191/105/41 186/115/41
f 240/116/38 163/119/38 190/118/38 237/117/38
f 138/120/42 159/123/42 189/122/42 185/121/42
f 223/124/43 153/108/43 188/109/43 228/125/43
f 179/107/38 151/127/38 187/126/38 194/106/38
f 136/128/44 138/131/44 185/130/44 183/129/44
f 163/119/45 136/133/45 183/132/45 190/118/45
f 142/131/46 140/128/46 186/129/46 184/130/46
f 171/113/47 142/135/47 184/134/47 192/112/47
f 214/136/2 217/137/2 206/59/2 203/93/2
f 211/138/48 216/139/48 205/103/48 200/68/48
f 249/140/49 263/142/49 262/141/49 248/141/49
f 209/143/33 214/136/33 203/93/33 198/92/33
f 239/144/2 213/145/2 202/15/2 238/84/2
f 208/146/28 212/147/28 201/70/28 197/69/28
f 231/148/50 211/138/50 200/68/50 230/66/50
f 217/137/2 210/149/2 199/61/2 206/59/2
f 207/150/1 208/151/1 197/9/1 196/10/1
f 213/145/17 207/152/17 196/18/17 202/15/17
f 218/151/8 209/150/8 198/10/8 195/9/8
f 215/153/51 218/154/51 195/8/51 204/5/51
f 192/112/52 184/134/52 218/154/52 215/153/52
f 184/130/8 186/129/8 209/150/8 218/151/8
f 190/118/17 183/132/17 207/152/17 213/145/17
f 183/129/1 185/130/1 208/151/1 207/150/1
f 194/106/2 187/126/2 210/149/2 217/137/2
f 228/125/53 188/109/53 211/138/53 231/148/53
f 185/121/28 189/122/28 212/147/28 208/146/28
f 237/117/2 190/118/2 213/145/2 239/144/2
f 186/115/33 191/105/33 214/136/33 209/143/33
f 216/139/54 257/139/54 259/155/54 205/103/54
f 188/109/55 193/110/55 216/139/55 211/138/55
f 191/105/2 194/106/2 217/137/2 214/136/2
f 187/126/2 227/157/2 232/156/2 210/149/2
f 230/66/56 266/158/56 268/148/56 231/148/56
f 210/149/2 232/156/2 229/159/2 199/61/2
f 151/127/38 219/160/38 227/157/38 187/126/38
f 151/63/57 153/64/57 223/162/57 219/161/57
f 199/61/2 229/159/2 224/55/2 154/56/2
f 152/54/4 155/46/4 221/163/4 220/67/4
f 155/46/26 157/47/26 222/164/26 221/163/26
f 245/165/36 230/66/36 220/67/36 241/83/36
f 234/85/2 235/166/2 225/58/2 224/55/2
f 236/167/3 243/168/3 222/52/3 226/49/3
f 235/169/25 236/170/25 226/44/25 225/41/25
f 161/78/25 162/79/25 236/170/25 235/169/25
f 162/74/3 166/75/3 243/168/3 236/167/3
f 160/16/2 161/71/2 235/166/2 234/85/2
f 201/70/58 245/165/58 241/83/58 164/27/58
f 159/123/59 233/172/59 244/171/59 189/122/59
f 212/147/60 246/173/60 245/165/60 201/70/60
f 189/122/61 244/171/61 246/173/61 212/147/61
f 227/157/2 237/117/2 239/144/2 232/156/2
f 232/156/2 239/144/2 238/84/2 229/159/2
f 219/160/38 240/116/38 237/117/38 227/157/38
f 219/161/62 223/162/62 233/87/62 240/86/62
f 229/159/2 238/84/2 234/85/2 224/55/2
f 220/67/4 221/163/4 242/81/4 241/83/4
f 221/163/26 222/164/26 243/82/26 242/81/26
f 215/153/63 255/153/63 256/112/63 192/112/63
f 249/140/64 253/176/64 254/175/64 250/174/64
f 248/141/65 262/141/65 261/177/65 247/177/65
f 247/177/66 261/177/66 264/178/66 250/174/66
f 251/179/4 254/175/4 253/176/4 252/180/4
f 247/177/67 251/179/67 252/180/67 248/141/67
f 250/174/68 254/175/68 251/179/68 247/177/68
f 248/141/69 252/180/69 253/176/69 249/140/69
f 257/139/70 255/153/70 260/181/70 259/155/70
f 258/110/71 256/112/71 261/177/71 262/141/71
f 256/112/72 255/153/72 264/178/72 261/177/72
f 255/153/73 257/139/73 263/142/73 264/178/73
f 262/141/74 263/142/74 257/139/74 258/110/74
f 193/110/75 258/110/75 257/139/75 216/139/75
f 192/112/76 256/112/76 258/110/76 193/110/76
f 205/103/77 259/155/77 260/181/77 204/5/77
f 250/174/78 264/178/78 263/142/78 249/140/78
f 204/5/79 260/181/79 255/153/79 215/153/79
f 267/173/4 268/148/4 266/158/4 265/182/4
f 246/173/80 267/173/80 265/182/80 245/165/80
f 231/148/81 268/148/81 267/173/81 246/173/81
f 245/165/82 265/182/82 266/158/82 230/66/82
f 112/173/83 97/148/83 231/148/83 246/173/83
f 97/148/84 94/125/84 228/125/84 231/148/84
f 94/125/8 89/124/8 223/124/8 228/125/8
f 89/162/85 99/87/85 233/87/85 223/162/85
f 99/172/1 110/171/1 244/171/1 233/172/1
f 110/171/86 112/173/86 246/173/86 244/171/86
