# Blender 4.4.3
# www.blender.org
mtllib secondFloorHouse.mtl
o Cube
v -1.830990 1.452914 -2.937636
v -1.830990 0.171004 -2.937636
v -1.830990 1.452914 1.000000
v -1.830990 0.171004 1.000000
v -1.830990 1.788023 -2.937636
v -1.830990 1.788023 1.000000
v -1.183301 0.171004 -2.937636
v -1.183301 1.452914 1.000000
v -1.183301 1.788023 1.000000
v -1.183301 0.171004 1.000000
v -1.183301 1.452914 -2.937636
v -1.183301 1.788023 -2.937636
v -0.539907 0.171004 1.000000
v -0.539907 1.452914 -2.937636
v -0.539907 1.788023 -2.937636
v -0.539907 0.171004 -2.937636
v -0.539907 1.452914 1.000000
v -0.539907 1.788023 1.000000
v -1.830990 0.736147 1.000000
v -1.830990 0.736147 -2.937636
v -1.183301 0.736147 -2.937636
v -1.183301 0.736147 1.000000
v -0.539907 0.736147 1.000000
v -0.539907 0.736147 -2.937636
v -1.830990 1.417076 1.000000
v -1.830990 1.417076 -2.937636
v -1.183301 1.417076 -2.937636
v -1.183301 1.417076 1.000000
v -0.539907 1.417076 1.000000
v -0.539907 1.417076 -2.937636
v -1.830990 1.349774 -2.937636
v -1.183301 1.349774 -2.937636
v -1.183301 1.349774 1.000000
v -0.539907 1.349774 1.000000
v -0.539907 1.349774 -2.937636
v -1.830990 1.349774 1.000000
v -1.126019 0.793727 1.000000
v -0.598323 0.793727 1.000000
v -0.598323 1.318675 1.000000
v -1.123271 1.318675 1.000000
v -1.118234 0.801452 0.971590
v -0.606068 0.801452 0.971590
v -0.606068 1.310951 0.971590
v -1.115567 1.310951 0.971590
v -1.183301 1.349774 1.040788
v -1.183301 0.736147 1.040788
v -0.539907 1.349774 1.040788
v -0.539907 0.736147 1.040788
v -0.539907 1.417076 1.040788
v -1.183301 1.417076 1.040788
v -1.126019 0.793727 1.040788
v -0.598323 0.793727 1.040788
v -0.598323 1.318675 1.040788
v -1.123271 1.318675 1.040788
v 0.007662 0.171004 1.000000
v 0.007662 1.452914 -2.937636
v 0.007662 1.788023 -2.937636
v 0.007662 0.171004 -2.937636
v 0.007662 1.452914 1.000000
v 0.007662 1.788023 1.000000
v 0.007662 0.736147 1.000000
v 0.007662 0.736147 -2.937636
v 0.007662 1.417076 1.000000
v 0.007662 1.417076 -2.937636
v 0.007662 1.349774 -2.937636
v 0.007662 1.349774 1.000000
v 1.830990 1.452914 -2.937636
v 1.830990 0.171004 -2.937636
v 1.830990 1.452914 1.000000
v 1.830990 0.171004 1.000000
v 1.830990 1.788023 -2.937636
v 1.830990 1.788023 1.000000
v 1.183301 0.171004 -2.937636
v 1.183301 1.452914 1.000000
v 1.183301 1.788023 1.000000
v 1.183301 0.171004 1.000000
v 1.183301 1.452914 -2.937636
v 1.183301 1.788023 -2.937636
v 0.539907 0.171004 1.000000
v 0.539907 1.452914 -2.937636
v 0.539907 1.788023 -2.937636
v 0.539907 0.171004 -2.937636
v 0.539907 1.452914 1.000000
v 0.539907 1.788023 1.000000
v 1.830990 0.736147 1.000000
v 1.830990 0.736147 -2.937636
v 1.183301 0.736147 -2.937636
v 1.183301 0.736147 1.000000
v 0.539907 0.736147 1.000000
v 0.539907 0.736147 -2.937636
v 1.830990 1.417076 1.000000
v 1.830990 1.417076 -2.937636
v 1.183301 1.417076 -2.937636
v 1.183301 1.417076 1.000000
v 0.539907 1.417076 1.000000
v 0.539907 1.417076 -2.937636
v 1.830990 1.349774 -2.937636
v 1.183301 1.349774 -2.937636
v 1.183301 1.349774 1.000000
v 0.539907 1.349774 1.000000
v 0.539907 1.349774 -2.937636
v 1.830990 1.349774 1.000000
v 1.126019 0.793727 1.000000
v 0.598323 0.793727 1.000000
v 0.598323 1.318675 1.000000
v 1.123271 1.318675 1.000000
v 1.118234 0.801452 0.971590
v 0.606068 0.801452 0.971590
v 0.606068 1.310951 0.971590
v 1.115567 1.310951 0.971590
v 1.183301 1.349774 1.040788
v 1.183301 0.736147 1.040788
v 0.539907 1.349774 1.040788
v 0.539907 0.736147 1.040788
v 0.539907 1.417076 1.040788
v 1.183301 1.417076 1.040788
v 1.126019 0.793727 1.040788
v 0.598323 0.793727 1.040788
v 0.598323 1.318675 1.040788
v 1.123271 1.318675 1.040788
v -0.007662 0.171004 1.000000
v -0.007662 1.452914 -2.937636
v -0.007662 1.788023 -2.937636
v -0.007662 0.171004 -2.937636
v -0.007662 1.452914 1.000000
v -0.007662 1.788023 1.000000
v -0.007662 0.736147 1.000000
v -0.007662 0.736147 -2.937636
v -0.007662 1.417076 1.000000
v -0.007662 1.417076 -2.937636
v -0.007662 1.349774 -2.937636
v -0.007662 1.349774 1.000000
vn -1.0000 -0.0000 -0.0000
vn -0.0000 -0.0000 1.0000
vn -0.0000 -0.0000 -1.0000
vn -0.0000 -1.0000 -0.0000
vn 1.0000 -0.0000 -0.0000
vn -0.0000 -0.9650 0.2624
vn -0.0000 1.0000 -0.0000
vn 1.0000 -0.0052 -0.0000
vn -0.0000 0.9650 0.2624
vn 0.9648 -0.0051 0.2630
vn -0.9648 -0.0000 0.2630
vn -1.0000 -0.0052 -0.0000
vn -0.9648 -0.0051 0.2630
vn 0.9648 -0.0000 0.2630
vt 0.590811 0.403109
vt 0.377500 0.403109
vt 0.377500 0.456721
vt 0.590811 0.456721
vt 0.251191 0.568578
vt 0.251191 0.579265
vt 0.122435 0.579265
vt 0.122435 0.568578
vt 0.377500 0.397376
vt 0.590811 0.397376
vt 0.429575 0.475468
vt 0.395492 0.475468
vt 0.395492 0.501920
vt 0.429575 0.501920
vt 0.609976 0.536777
vt 0.609976 0.480188
vt 0.726471 0.480188
vt 0.726471 0.536777
vt 0.395492 0.472639
vt 0.429575 0.472639
vt 0.251191 0.679190
vt 0.122435 0.679190
vt 0.463432 0.475468
vt 0.463432 0.501920
vt 0.379093 0.568578
vt 0.379093 0.579265
vt 0.487946 0.568578
vt 0.487946 0.579265
vt 0.492247 0.475468
vt 0.492247 0.501920
vt 0.609976 0.423974
vt 0.726471 0.423974
vt 0.463432 0.472639
vt 0.379093 0.679190
vt 0.429575 0.374283
vt 0.429575 0.418891
vt 0.463432 0.418891
vt 0.463432 0.374283
vt 0.487946 0.197012
vt 0.487946 0.365532
vt 0.379093 0.365532
vt 0.379093 0.197012
vt 0.251191 0.365532
vt 0.251191 0.197012
vt 0.395492 0.374283
vt 0.395492 0.418891
vt 0.377500 0.198025
vt 0.377500 0.288439
vt 0.590811 0.288439
vt 0.590811 0.198025
vt 0.122435 0.365532
vt 0.122435 0.197012
vt 0.429575 0.467327
vt 0.463432 0.467327
vt 0.487946 0.548509
vt 0.379093 0.548509
vt 0.367481 0.539236
vt 0.367481 0.382702
vt 0.367481 0.539236
vt 0.395492 0.467327
vt 0.377500 0.386609
vt 0.590811 0.386609
vt 0.251191 0.548509
vt 0.122435 0.548509
vt 0.379093 0.568578
vt 0.263125 0.539236
vt 0.264656 0.536933
vt 0.365941 0.536933
vt 0.262578 0.382702
vt 0.263125 0.539236
vt 0.264126 0.385005
vt 0.365941 0.385005
vt 0.251191 0.568578
vt 0.622411 0.477100
vt 0.622501 0.427467
vt 0.622578 0.385227
vt 0.725435 0.385647
vt 0.725358 0.427888
vt 0.725268 0.477521
vt 0.725177 0.527485
vt 0.622320 0.527065
vt 0.492247 0.467327
vt 0.492247 0.418891
vt 0.492247 0.472639
vt 0.492247 0.374283
vt 0.609976 0.376133
vt 0.726471 0.376133
vt 0.487946 0.679190
s 0
usemtl Material
f 1/1/1 3/2/1 6/3/1 5/4/1
f 28/5/2 8/6/2 3/7/2 25/8/2
f 25/9/1 3/2/1 1/1/1 26/10/1
f 11/11/3 1/12/3 5/13/3 12/14/3
f 2/15/4 7/16/4 10/17/4 4/18/4
f 26/19/3 1/12/3 11/11/3 27/20/3
f 3/7/2 8/6/2 9/21/2 6/22/2
f 14/23/3 11/11/3 12/14/3 15/24/3
f 29/25/2 17/26/2 8/6/2 28/5/2
f 63/27/2 59/28/2 17/26/2 29/25/2
f 56/29/3 14/23/3 15/24/3 57/30/3
f 7/16/4 16/31/4 13/32/4 10/17/4
f 27/20/3 11/11/3 14/23/3 30/33/3
f 8/6/2 17/26/2 18/34/2 9/21/2
f 7/35/3 21/36/3 24/37/3 16/38/3
f 55/39/2 61/40/2 23/41/2 13/42/2
f 13/42/2 23/41/2 22/43/2 10/44/2
f 2/45/3 20/46/3 21/36/3 7/35/3
f 4/47/1 19/48/1 20/49/1 2/50/1
f 10/44/2 22/43/2 19/51/2 4/52/2
f 32/53/3 27/20/3 30/33/3 35/54/3
f 66/55/2 63/27/2 29/25/2 34/56/2
f 39/57/1 38/58/1 52/58/1 53/59/1
f 31/60/3 26/19/3 27/20/3 32/53/3
f 36/61/1 25/9/1 26/10/1 31/62/1
f 33/63/2 28/5/2 25/8/2 36/64/2
f 22/43/2 33/63/2 36/64/2 19/51/2
f 19/48/1 36/61/1 31/62/1 20/49/1
f 20/46/3 31/60/3 32/53/3 21/36/3
f 34/56/5 29/25/5 49/65/5 47/56/5
f 61/40/2 66/55/2 34/56/2 23/41/2
f 21/36/3 32/53/3 35/54/3 24/37/3
f 33/63/1 22/43/1 46/43/1 45/63/1
f 39/57/6 40/66/6 44/67/6 43/68/6
f 38/58/7 37/69/7 51/69/7 52/58/7
f 37/69/8 40/66/8 54/70/8 51/69/8
f 41/71/2 42/72/2 43/68/2 44/67/2
f 37/69/9 38/58/9 42/72/9 41/71/9
f 40/66/10 37/69/10 41/71/10 44/67/10
f 38/58/11 39/57/11 43/68/11 42/72/11
f 47/56/2 49/65/2 50/73/2 45/63/2
f 48/41/2 52/58/2 51/69/2 46/43/2
f 46/43/2 51/69/2 54/70/2 45/63/2
f 45/63/2 54/70/2 53/59/2 47/56/2
f 52/58/2 48/41/2 47/56/2 53/59/2
f 23/41/5 34/56/5 47/56/5 48/41/5
f 22/43/4 23/41/4 48/41/4 46/43/4
f 29/25/7 28/5/7 50/73/7 49/65/7
f 40/66/4 39/57/4 53/59/4 54/70/4
f 28/5/1 33/63/1 45/63/1 50/73/1
f 9/74/7 18/75/7 60/76/7 57/77/7 15/78/7 12/79/7 5/80/7 6/81/7
f 24/37/3 35/54/3 65/82/3 62/83/3
f 35/54/3 30/33/3 64/84/3 65/82/3
f 16/38/3 24/37/3 62/83/3 58/85/3
f 16/31/4 58/86/4 55/87/4 13/32/4
f 30/33/3 14/23/3 56/29/3 64/84/3
f 17/26/2 59/28/2 60/88/2 18/34/2
f 67/1/5 71/4/5 72/3/5 69/2/5
f 94/5/2 91/8/2 69/7/2 74/6/2
f 91/9/5 92/10/5 67/1/5 69/2/5
f 77/11/3 78/14/3 71/13/3 67/12/3
f 68/15/4 70/18/4 76/17/4 73/16/4
f 92/19/3 93/20/3 77/11/3 67/12/3
f 69/7/2 72/22/2 75/21/2 74/6/2
f 80/23/3 81/24/3 78/14/3 77/11/3
f 95/25/2 94/5/2 74/6/2 83/26/2
f 129/27/2 95/25/2 83/26/2 125/28/2
f 122/29/3 123/30/3 81/24/3 80/23/3
f 73/16/4 76/17/4 79/32/4 82/31/4
f 93/20/3 96/33/3 80/23/3 77/11/3
f 74/6/2 75/21/2 84/34/2 83/26/2
f 73/35/3 82/38/3 90/37/3 87/36/3
f 121/39/2 79/42/2 89/41/2 127/40/2
f 79/42/2 76/44/2 88/43/2 89/41/2
f 68/45/3 73/35/3 87/36/3 86/46/3
f 70/47/5 68/50/5 86/49/5 85/48/5
f 76/44/2 70/52/2 85/51/2 88/43/2
f 98/53/3 101/54/3 96/33/3 93/20/3
f 132/55/2 100/56/2 95/25/2 129/27/2
f 105/57/5 119/59/5 118/58/5 104/58/5
f 97/60/3 98/53/3 93/20/3 92/19/3
f 102/61/5 97/62/5 92/10/5 91/9/5
f 99/63/2 102/64/2 91/8/2 94/5/2
f 88/43/2 85/51/2 102/64/2 99/63/2
f 85/48/5 86/49/5 97/62/5 102/61/5
f 86/46/3 87/36/3 98/53/3 97/60/3
f 100/56/1 113/56/1 115/65/1 95/25/1
f 127/40/2 89/41/2 100/56/2 132/55/2
f 87/36/3 90/37/3 101/54/3 98/53/3
f 99/63/5 111/63/5 112/43/5 88/43/5
f 105/57/6 109/68/6 110/67/6 106/66/6
f 104/58/7 118/58/7 117/69/7 103/69/7
f 103/69/12 117/69/12 120/70/12 106/66/12
f 107/71/2 110/67/2 109/68/2 108/72/2
f 103/69/9 107/71/9 108/72/9 104/58/9
f 106/66/13 110/67/13 107/71/13 103/69/13
f 104/58/14 108/72/14 109/68/14 105/57/14
f 113/56/2 111/63/2 116/73/2 115/65/2
f 114/41/2 112/43/2 117/69/2 118/58/2
f 112/43/2 111/63/2 120/70/2 117/69/2
f 111/63/2 113/56/2 119/59/2 120/70/2
f 118/58/2 119/59/2 113/56/2 114/41/2
f 89/41/1 114/41/1 113/56/1 100/56/1
f 88/43/4 112/43/4 114/41/4 89/41/4
f 95/25/7 115/65/7 116/73/7 94/5/7
f 106/66/4 120/70/4 119/59/4 105/57/4
f 94/5/5 116/73/5 111/63/5 99/63/5
f 75/74/7 72/81/7 71/80/7 78/79/7 81/78/7 123/77/7 126/76/7 84/75/7
f 90/37/3 128/83/3 131/82/3 101/54/3
f 101/54/3 131/82/3 130/84/3 96/33/3
f 82/38/3 124/85/3 128/83/3 90/37/3
f 82/31/4 79/32/4 121/87/4 124/86/4
f 96/33/3 130/84/3 122/29/3 80/23/3
f 83/26/2 84/34/2 126/88/2 125/28/2
